<svg id="close" xmlns="http://www.w3.org/2000/svg" width="63.112" height="63.112" viewBox="0 0 63.112 63.112">
  <circle id="Ellipse_9" data-name="Ellipse 9" cx="31.556" cy="31.556" r="31.556" transform="translate(0 0)" fill="#e24c4b"/>
  <path id="Path_38" data-name="Path 38" d="M105.986,74.432A31.649,31.649,0,0,1,74.43,105.988,31.052,31.052,0,0,1,49.777,94.155a31.134,31.134,0,0,0,19.722,6.9A31.649,31.649,0,0,0,101.055,69.5a31.134,31.134,0,0,0-6.9-19.722A31.051,31.051,0,0,1,105.986,74.432Z" transform="translate(-42.874 -42.876)" fill="#d1403f"/>
  <path id="Path_39" data-name="Path 39" d="M147.016,147.016a3.1,3.1,0,0,1-4.339,0l-10.058-10.058-10.058,10.058a3.068,3.068,0,0,1-4.339-4.339l10.058-10.058-10.058-10.058a3.068,3.068,0,0,1,4.339-4.339l10.058,10.058,10.058-10.058a3.068,3.068,0,0,1,4.339,4.339l-10.058,10.058,10.058,10.058A3.1,3.1,0,0,1,147.016,147.016Z" transform="translate(-101.063 -101.063)" fill="#fff"/>
</svg>
