<svg xmlns="http://www.w3.org/2000/svg" xmlns:xlink="http://www.w3.org/1999/xlink" width="32.6" height="32.6" viewBox="0 0 32.6 32.6">
  <defs>
    <linearGradient id="linear-gradient" x1="0.5" y1="1.651" x2="0.5" y2="-0.384" gradientUnits="objectBoundingBox">
      <stop offset="0" stop-color="#f9c01e"/>
      <stop offset="0.377" stop-color="#eabf2a"/>
      <stop offset="1" stop-color="#00acea"/>
    </linearGradient>
  </defs>
  <g id="tick" transform="translate(-9.2 -13.2)">
    <path id="Path_28" data-name="Path 28" d="M30.25,32.519a1.218,1.218,0,0,0-1.8,1.638l6.184,6.717a1.224,1.224,0,0,0,.86.41h.041a1.115,1.115,0,0,0,.86-.369l15.645-15.6a1.187,1.187,0,0,0,0-1.72,1.223,1.223,0,0,0-1.72,0l-14.744,14.7Z" transform="translate(-11.18 -5.926)" fill="url(#linear-gradient)"/>
    <path id="Path_29" data-name="Path 29" d="M40.571,28.271A1.207,1.207,0,0,0,39.343,29.5,13.843,13.843,0,1,1,25.5,15.657a1.229,1.229,0,1,0,0-2.457A16.3,16.3,0,1,0,41.8,29.5,1.207,1.207,0,0,0,40.571,28.271Z" transform="translate(0)" fill="url(#linear-gradient)"/>
  </g>
</svg>
